<?xml version="1.0" encoding="UTF-8" standalone="no"?>
<svg
   xmlns:dc="http://purl.org/dc/elements/1.1/"
   xmlns:cc="http://creativecommons.org/ns#"
   xmlns:rdf="http://www.w3.org/1999/02/22-rdf-syntax-ns#"
   xmlns:svg="http://www.w3.org/2000/svg"
   xmlns="http://www.w3.org/2000/svg"
   xmlns:sodipodi="http://sodipodi.sourceforge.net/DTD/sodipodi-0.dtd"
   xmlns:inkscape="http://www.inkscape.org/namespaces/inkscape"
   width="24"
   height="24"
   viewBox="0 0 24 24"
   id="svg2"
   version="1.1"
   inkscape:version="0.91 r13725"
   sodipodi:docname="cpu.svg">
  <metadata
     id="metadata10">
    <rdf:RDF>
      <cc:Work
         rdf:about="">
        <dc:format>image/svg+xml</dc:format>
        <dc:type
           rdf:resource="http://purl.org/dc/dcmitype/StillImage" />
      </cc:Work>
    </rdf:RDF>
  </metadata>
  <defs
     id="defs8" />
  <sodipodi:namedview
     pagecolor="#ffffff"
     bordercolor="#666666"
     borderopacity="1"
     objecttolerance="10"
     gridtolerance="10"
     guidetolerance="10"
     inkscape:pageopacity="0"
     inkscape:pageshadow="2"
     inkscape:window-width="1366"
     inkscape:window-height="717"
     id="namedview6"
     showgrid="false"
     inkscape:zoom="9.8333333"
     inkscape:cx="12"
     inkscape:cy="12"
     inkscape:window-x="0"
     inkscape:window-y="25"
     inkscape:window-maximized="1"
     inkscape:current-layer="svg2" />
  <path
     d="M10 2h-2v-2h2v2zm-8 12h-2v2h2v-2zm0-3h-2v2h2v-2zm0-3h-2v2h2v-2zm0-5c0-.551.448-1 1-1h4v-2h-4c-1.657 0-3 1.343-3 3v4h2v-4zm11-3h-2v2h2v-2zm3 0h-2v2h2v-2zm-3.33 11.61c0-.326-.214-.396-.539-.396h-.465v.793h.465c.327-.001.539-.07.539-.397zm-8.67-7.61h16v16h-16v-16zm10.042 8.596c0 .946.548 1.404 1.487 1.404.915 0 1.49-.457 1.49-1.404v-2.129h-.907v2.129c0 .478-.161.617-.583.617-.442 0-.583-.21-.583-.617v-2.129h-.904v2.129zm-3.283 1.331h.907v-1.173h.662c.788 0 1.225-.474 1.225-1.144 0-.68-.448-1.143-1.225-1.143h-1.569v3.46zm-3.738-1.717c0 1.01.646 1.79 1.702 1.79.824 0 1.447-.478 1.541-1.521h-.881c-.147 1.097-1.455.963-1.455-.268 0-.562.227-1.029.795-1.029.307 0 .576.186.633.573h.881c-.09-.922-.729-1.365-1.514-1.365-1.05-.001-1.702.786-1.702 1.82zm14.979.79h2v-2h-2v2zm-20 8v-4h-2v4c0 1.657 1.343 3 3 3h4v-2h-4c-.552 0-1-.449-1-1zm20 0c0 .551-.448 1-1 1h-4v2h4c1.657 0 3-1.343 3-3v-4h-2v4zm0-5h2v-2h-2v2zm0-6h2v-2h-2v2zm-1-10h-4v2h4c.552 0 1 .449 1 1v4h2v-4c0-1.657-1.343-3-3-3zm-13 24h2v-2h-2v2zm6 0h2v-2h-2v2zm-3 0h2v-2h-2v2z"
     id="path4"
     style="fill:#000" />
</svg>
