<?xml version="1.0" encoding="UTF-8" standalone="no"?>
<svg
   xmlns:dc="http://purl.org/dc/elements/1.1/"
   xmlns:cc="http://creativecommons.org/ns#"
   xmlns:rdf="http://www.w3.org/1999/02/22-rdf-syntax-ns#"
   xmlns:svg="http://www.w3.org/2000/svg"
   xmlns="http://www.w3.org/2000/svg"
   xmlns:sodipodi="http://sodipodi.sourceforge.net/DTD/sodipodi-0.dtd"
   xmlns:inkscape="http://www.inkscape.org/namespaces/inkscape"
   width="24"
   height="24"
   viewBox="0 0 24 24"
   id="svg2"
   version="1.1"
   inkscape:version="0.91 r13725"
   sodipodi:docname="gpu.svg">
  <metadata
     id="metadata10">
    <rdf:RDF>
      <cc:Work
         rdf:about="">
        <dc:format>image/svg+xml</dc:format>
        <dc:type
           rdf:resource="http://purl.org/dc/dcmitype/StillImage" />
      </cc:Work>
    </rdf:RDF>
  </metadata>
  <defs
     id="defs8" />
  <sodipodi:namedview
     pagecolor="#ffffff"
     bordercolor="#666666"
     borderopacity="1"
     objecttolerance="10"
     gridtolerance="10"
     guidetolerance="10"
     inkscape:pageopacity="0"
     inkscape:pageshadow="2"
     inkscape:window-width="1366"
     inkscape:window-height="717"
     id="namedview6"
     showgrid="false"
     inkscape:zoom="21.916667"
     inkscape:cx="16.128113"
     inkscape:cy="11.978388"
     inkscape:window-x="0"
     inkscape:window-y="25"
     inkscape:window-maximized="1"
     inkscape:current-layer="svg2" />
  <path
     d="M 3 0 C 1.343 0 0 1.343 0 3 L 0 7 L 2 7 L 2 3 C 2 2.449 2.448 2 3 2 L 7 2 L 7 0 L 3 0 z M 8 0 L 8 2 L 10 2 L 10 0 L 8 0 z M 11 0 L 11 2 L 13 2 L 13 0 L 11 0 z M 14 0 L 14 2 L 16 2 L 16 0 L 14 0 z M 17 0 L 17 2 L 21 2 C 21.552 2 22 2.449 22 3 L 22 7 L 24 7 L 24 3 C 24 1.343 22.657 0 21 0 L 17 0 z M 4 4 L 4 20 L 20 20 L 20 4 L 4 4 z M 0 8 L 0 10 L 2 10 L 2 8 L 0 8 z M 22 8 L 22 10 L 24 10 L 24 8 L 22 8 z M 8.1464844 9.9667969 C 8.3965201 9.9667969 8.641509 9.9917954 8.8808594 10.039062 C 9.1202097 10.086333 9.3403162 10.147029 9.5390625 10.222656 L 9.2089844 10.925781 C 9.0636645 10.861497 8.8986306 10.807158 8.7148438 10.763672 C 8.5331937 10.720185 8.3415083 10.699219 8.140625 10.699219 C 7.9226451 10.699219 7.72602 10.732716 7.5507812 10.800781 C 7.3776796 10.866955 7.229418 10.961088 7.1054688 11.083984 C 6.9815195 11.20688 6.8865613 11.355352 6.8203125 11.529297 C 6.7540638 11.703241 6.7207031 11.897678 6.7207031 12.111328 C 6.7207031 12.315524 6.7422315 12.503665 6.7871094 12.673828 C 6.8341249 12.842101 6.907555 12.98648 7.0058594 13.109375 C 7.104164 13.232271 7.2308975 13.328419 7.3847656 13.396484 C 7.5407707 13.46455 7.7255635 13.498047 7.9414062 13.498047 C 8.0824521 13.498047 8.2007074 13.491812 8.296875 13.480469 C 8.3951797 13.469125 8.4887365 13.456531 8.5742188 13.441406 L 8.5742188 12.576172 L 7.6855469 12.576172 L 7.6855469 11.845703 L 9.5449219 11.845703 L 9.5449219 13.994141 C 9.4209726 14.030065 9.2960083 14.0635 9.1699219 14.09375 C 9.0438356 14.122112 8.9121623 14.147175 8.7753906 14.167969 C 8.640756 14.186875 8.4992034 14.201547 8.3496094 14.212891 C 8.2021525 14.224234 8.0436436 14.230469 7.8769531 14.230469 C 7.5264758 14.230469 7.2167187 14.184504 6.9453125 14.09375 C 6.6760433 14.001111 6.4476426 13.865163 6.2617188 13.685547 C 6.0779319 13.504039 5.9379645 13.280323 5.8417969 13.015625 C 5.7456294 12.749036 5.6972656 12.441639 5.6972656 12.09375 C 5.6972656 11.768549 5.750569 11.475698 5.8574219 11.212891 C 5.9642747 10.950083 6.1227836 10.726367 6.3300781 10.542969 C 6.5395097 10.35768 6.7961473 10.215502 7.0996094 10.117188 C 7.4052085 10.016978 7.7532659 9.9667969 8.1464844 9.9667969 z M 10.664062 10.027344 L 11.964844 10.027344 C 12.266169 10.027344 12.526161 10.056687 12.744141 10.117188 C 12.964258 10.175798 13.14411 10.261495 13.285156 10.373047 C 13.428339 10.482707 13.53513 10.618587 13.603516 10.779297 C 13.671905 10.938116 13.705078 11.118007 13.705078 11.320312 C 13.705078 11.501819 13.675256 11.675415 13.613281 11.841797 C 13.551306 12.008178 13.44787 12.154573 13.304688 12.28125 C 13.163641 12.407927 12.97708 12.510309 12.744141 12.585938 C 12.513338 12.661564 12.226695 12.699219 11.884766 12.699219 L 11.658203 12.699219 L 11.658203 14.173828 L 10.664062 14.173828 L 10.664062 10.027344 z M 14.554688 10.027344 L 15.544922 10.027344 L 15.544922 12.632812 C 15.544922 12.785959 15.563465 12.917683 15.597656 13.027344 C 15.631847 13.135114 15.681796 13.224966 15.748047 13.294922 C 15.816436 13.362987 15.899562 13.41317 16 13.445312 C 16.100442 13.477456 16.218881 13.492187 16.353516 13.492188 C 16.63347 13.492188 16.835035 13.421037 16.958984 13.277344 C 17.085071 13.13365 17.148438 12.916231 17.148438 12.626953 L 17.148438 10.027344 L 18.138672 10.027344 L 18.138672 12.708984 C 18.138672 12.924525 18.102141 13.125258 18.027344 13.310547 C 17.954684 13.495836 17.841184 13.656838 17.689453 13.792969 C 17.539859 13.929099 17.351528 14.035763 17.125 14.113281 C 16.898472 14.1908 16.633724 14.230469 16.328125 14.230469 C 16.039622 14.230469 15.784754 14.194893 15.5625 14.123047 C 15.342383 14.049309 15.157407 13.944786 15.007812 13.810547 C 14.860356 13.676307 14.746856 13.515304 14.669922 13.328125 C 14.592988 13.139054 14.554687 12.929884 14.554688 12.699219 L 14.554688 10.027344 z M 11.658203 10.748047 L 11.658203 11.978516 L 11.853516 11.978516 C 12.13347 11.978516 12.343329 11.928395 12.484375 11.830078 C 12.627558 11.731762 12.699219 11.572775 12.699219 11.351562 C 12.699219 11.145477 12.634083 10.992848 12.505859 10.894531 C 12.379773 10.796215 12.181563 10.748047 11.910156 10.748047 L 11.658203 10.748047 z M 0 11 L 0 13 L 2 13 L 2 11 L 0 11 z M 22 11 L 22 13 L 24 13 L 24 11 L 22 11 z M 0 14 L 0 16 L 2 16 L 2 14 L 0 14 z M 22 14 L 22 16 L 24 16 L 24 14 L 22 14 z M 0 17 L 0 21 C 0 22.657 1.343 24 3 24 L 7 24 L 7 22 L 3 22 C 2.448 22 2 21.551 2 21 L 2 17 L 0 17 z M 22 17 L 22 21 C 22 21.551 21.552 22 21 22 L 17 22 L 17 24 L 21 24 C 22.657 24 24 22.657 24 21 L 24 17 L 22 17 z M 8 22 L 8 24 L 10 24 L 10 22 L 8 22 z M 11 22 L 11 24 L 13 24 L 13 22 L 11 22 z M 14 22 L 14 24 L 16 24 L 16 22 L 14 22 z "
     id="path4"
     style="fill:#ffffff" />
  <g
     transform="matrix(1.0631546,0,0,0.94059698,0.09125475,-0.81368821)"
     style="font-style:normal;font-variant:normal;font-weight:normal;font-stretch:normal;font-size:49.40044785px;line-height:125%;font-family:'Droid Sans';-inkscape-font-specification:'Droid Sans';letter-spacing:0px;word-spacing:0px;fill:#000000;fill-opacity:1;stroke:none;stroke-width:1px;stroke-linecap:butt;stroke-linejoin:miter;stroke-opacity:1"
     id="text3348" />
</svg>
