<?xml version="1.0" encoding="UTF-8" standalone="no"?>
<svg
   xmlns:dc="http://purl.org/dc/elements/1.1/"
   xmlns:cc="http://creativecommons.org/ns#"
   xmlns:rdf="http://www.w3.org/1999/02/22-rdf-syntax-ns#"
   xmlns:svg="http://www.w3.org/2000/svg"
   xmlns="http://www.w3.org/2000/svg"
   xmlns:sodipodi="http://sodipodi.sourceforge.net/DTD/sodipodi-0.dtd"
   xmlns:inkscape="http://www.inkscape.org/namespaces/inkscape"
   width="24"
   height="24"
   viewBox="0 0 24 24"
   id="svg2"
   version="1.1"
   inkscape:version="0.91 r13725"
   sodipodi:docname="ram.svg">
  <metadata
     id="metadata10">
    <rdf:RDF>
      <cc:Work
         rdf:about="">
        <dc:format>image/svg+xml</dc:format>
        <dc:type
           rdf:resource="http://purl.org/dc/dcmitype/StillImage" />
      </cc:Work>
    </rdf:RDF>
  </metadata>
  <defs
     id="defs8" />
  <sodipodi:namedview
     pagecolor="#ffffff"
     bordercolor="#666666"
     borderopacity="1"
     objecttolerance="10"
     gridtolerance="10"
     guidetolerance="10"
     inkscape:pageopacity="0"
     inkscape:pageshadow="2"
     inkscape:window-width="640"
     inkscape:window-height="480"
     id="namedview6"
     showgrid="false"
     inkscape:zoom="9.8333333"
     inkscape:cx="12"
     inkscape:cy="12"
     inkscape:window-x="0"
     inkscape:window-y="25"
     inkscape:window-maximized="0"
     inkscape:current-layer="svg2" />
  <path
     d="M21 4c0-1.104-.896-2-2-2h-15c-1.104 0-2 .896-2 2v15c0 1.104.896 2 2 2h15c1.104 0 2-.896 2-2v-15zm-2 14.25c0 .414-.336.75-.75.75h-13.5c-.414 0-.75-.336-.75-.75v-13.5c0-.414.336-.75.75-.75h13.5c.414 0 .75.336.75.75v13.5zm-9 3.75v1h-1v-1h1zm2 0v1h-1v-1h1zm-4 0v1h-1v-1h1zm6 0v1h-1v-1h1zm2 0v1h-1v-1h1zm-6-22v1h-1v-1h1zm2 0v1h-1v-1h1zm-4 0v1h-1v-1h1zm6 0v1h-1v-1h1zm2 0v1h-1v-1h1zm6 13h1v1h-1v-1zm0-4h1v1h-1v-1zm0-2h1v1h-1v-1zm0 4h1v1h-1v-1zm0 4h1v1h-1v-1zm-22-2h1v1h-1v-1zm0-4h1v1h-1v-1zm0-2h1v1h-1v-1zm0 4h1v1h-1v-1zm0 4h1v1h-1v-1zm11-4h-5v-5h5v5zm6 0h-5v-5h5v5zm-6 6h-5v-5h5v5zm6 0h-5v-5h5v5z"
     id="path4"
     style="fill:#ffffff" />
</svg>
